<svg width="26" height="26" viewBox="0 0 26 26" fill="none" xmlns="http://www.w3.org/2000/svg">
<path d="M23.5625 4.0625H2.4375C1.98809 4.0625 1.625 4.42559 1.625 4.875V21.125C1.625 21.5744 1.98809 21.9375 2.4375 21.9375H23.5625C24.0119 21.9375 24.375 21.5744 24.375 21.125V4.875C24.375 4.42559 24.0119 4.0625 23.5625 4.0625ZM22.5469 20.1094H3.45313V5.89063H22.5469V20.1094ZM15.4959 12.0859H18.6291C18.6621 12.0859 18.6875 11.9945 18.6875 11.8828V10.6641C18.6875 10.5523 18.6621 10.4609 18.6291 10.4609H15.4959C15.4629 10.4609 15.4375 10.5523 15.4375 10.6641V11.8828C15.4375 11.9945 15.4629 12.0859 15.4959 12.0859ZM15.6178 15.7422H20.3328C20.4318 15.7422 20.5131 15.6508 20.5131 15.5391V14.3203C20.5131 14.2086 20.4318 14.1172 20.3328 14.1172H15.6178C15.5187 14.1172 15.4375 14.2086 15.4375 14.3203V15.5391C15.4375 15.6508 15.5187 15.7422 15.6178 15.7422ZM5.6875 17.0879H6.80215C6.90879 17.0879 6.99512 17.0041 7.00273 16.8975C7.09922 15.6152 8.1707 14.5996 9.4707 14.5996C10.7707 14.5996 11.8422 15.6152 11.9387 16.8975C11.9463 17.0041 12.0326 17.0879 12.1393 17.0879H13.2539C13.2815 17.0879 13.3087 17.0824 13.3341 17.0715C13.3594 17.0607 13.3823 17.0448 13.4013 17.0249C13.4203 17.0049 13.435 16.9813 13.4446 16.9555C13.4542 16.9296 13.4584 16.9021 13.457 16.8746C13.3859 15.5213 12.6445 14.3432 11.5629 13.6729C12.0399 13.1485 12.3035 12.4647 12.3018 11.7559C12.3018 10.1842 11.0348 8.91211 9.47324 8.91211C7.91172 8.91211 6.64473 10.1842 6.64473 11.7559C6.64473 12.4947 6.92402 13.165 7.38359 13.6729C6.83294 14.0141 6.37306 14.4835 6.04322 15.0411C5.71338 15.5986 5.52338 16.2277 5.48945 16.8746C5.4793 16.9914 5.5707 17.0879 5.6875 17.0879ZM9.4707 10.4355C10.1943 10.4355 10.7834 11.0271 10.7834 11.7559C10.7834 12.4846 10.1943 13.0762 9.4707 13.0762C8.74707 13.0762 8.15801 12.4846 8.15801 11.7559C8.15801 11.0271 8.74707 10.4355 9.4707 10.4355Z" fill="#8C8C8C"/>
</svg>
