<svg width="26" height="26" viewBox="0 0 26 26" fill="none" xmlns="http://www.w3.org/2000/svg">
<path d="M24.0322 12.8223L14.2213 3.01641L13.5637 2.35879C13.4138 2.20994 13.2112 2.1264 13 2.1264C12.7888 2.1264 12.5862 2.20994 12.4363 2.35879L1.96777 12.8223C1.81424 12.9752 1.6929 13.1573 1.61092 13.358C1.52893 13.5586 1.48796 13.7735 1.49043 13.9902C1.50059 14.884 2.24453 15.5975 3.13828 15.5975H4.21738V23.8672H21.7826V15.5975H22.8846C23.3188 15.5975 23.7275 15.4273 24.0348 15.1201C24.186 14.9693 24.3059 14.79 24.3874 14.5926C24.4689 14.3952 24.5104 14.1835 24.5096 13.9699C24.5096 13.5383 24.3395 13.1295 24.0322 12.8223V12.8223ZM14.4219 22.0391H11.5781V16.8594H14.4219V22.0391ZM19.9545 13.7693V22.0391H16.0469V16.25C16.0469 15.6889 15.5924 15.2344 15.0313 15.2344H10.9688C10.4076 15.2344 9.95313 15.6889 9.95313 16.25V22.0391H6.04551V13.7693H3.60801L13.0025 4.38243L13.5891 4.96895L22.3945 13.7693H19.9545Z" fill="#18A0FB"/>
</svg>
