<svg width="26" height="26" viewBox="0 0 26 26" fill="none" xmlns="http://www.w3.org/2000/svg">
<path d="M21.6988 7.34043C21.2208 6.23817 20.5316 5.24017 19.6701 4.40273C18.8058 3.55773 17.7869 2.88706 16.6689 2.42734C15.5061 1.94492 14.2721 1.70117 13 1.70117C11.7279 1.70117 10.4939 1.94492 9.33105 2.4248C8.20625 2.88945 7.19824 3.55469 6.32988 4.4002C5.46894 5.2381 4.77982 6.23599 4.30117 7.33789C3.80605 8.48047 3.55469 9.69414 3.55469 10.9434C3.55469 12.7359 3.98379 14.5209 4.82676 16.2424C5.50469 17.6262 6.45176 18.9744 7.64512 20.2566C9.68398 22.4453 11.8219 23.7834 12.4287 24.1414C12.601 24.2431 12.7974 24.2966 12.9975 24.2963C13.1955 24.2963 13.391 24.2455 13.5662 24.1414C14.173 23.7834 16.3109 22.4453 18.3498 20.2566C19.5432 18.977 20.4902 17.6262 21.1682 16.2424C22.0162 14.5234 22.4453 12.741 22.4453 10.9459C22.4453 9.69668 22.1939 8.48301 21.6988 7.34043ZM13 22.3488C11.3268 21.285 5.38281 17.0727 5.38281 10.9459C5.38281 8.96797 6.17246 7.10938 7.60703 5.70781C9.04668 4.30371 10.9611 3.5293 13 3.5293C15.0389 3.5293 16.9533 4.30371 18.393 5.71035C19.8275 7.10937 20.6172 8.96797 20.6172 10.9459C20.6172 17.0727 14.6732 21.285 13 22.3488ZM13 6.67773C10.532 6.67773 8.53125 8.67852 8.53125 11.1465C8.53125 13.6145 10.532 15.6152 13 15.6152C15.468 15.6152 17.4688 13.6145 17.4688 11.1465C17.4688 8.67852 15.468 6.67773 13 6.67773ZM15.0109 13.1574C14.7472 13.4219 14.4337 13.6317 14.0886 13.7746C13.7435 13.9175 13.3735 13.9908 13 13.9902C12.2408 13.9902 11.5273 13.6932 10.9891 13.1574C10.7246 12.8937 10.5148 12.5802 10.3719 12.2351C10.2289 11.89 10.1557 11.52 10.1562 11.1465C10.1562 10.3873 10.4533 9.67383 10.9891 9.13555C11.5273 8.59727 12.2408 8.30273 13 8.30273C13.7592 8.30273 14.4727 8.59727 15.0109 9.13555C15.5492 9.67383 15.8438 10.3873 15.8438 11.1465C15.8438 11.9057 15.5492 12.6191 15.0109 13.1574Z" fill="#8C8C8C"/>
</svg>
