<svg width="50" height="50" viewBox="0 0 50 50" fill="none" xmlns="http://www.w3.org/2000/svg">
<path d="M38.3634 42.7343L43.5504 37.5454C44.1842 36.912 44.5401 36.0643 44.5401 35.1678C44.5401 34.2713 44.1891 33.4235 43.5504 32.7901L37.9686 27.2017C37.3348 26.5683 36.4817 26.2126 35.5847 26.2126C34.6828 26.2126 33.8394 26.5634 33.2008 27.2017L28.8279 31.5672C26.5095 30.5727 24.4029 29.1438 22.6221 27.3576C20.8232 25.5695 19.4046 23.4793 18.4003 21.1601L22.7732 16.7946C23.4069 16.1612 23.7628 15.3134 23.7628 14.4169C23.7644 13.9747 23.6778 13.5367 23.5078 13.1284C23.3379 12.7201 23.0881 12.3499 22.7732 12.0393L17.1913 6.44597C16.5576 5.81258 15.7044 5.45691 14.8074 5.45691C13.9056 5.45691 13.0622 5.80771 12.4236 6.44597L7.23656 11.63C6.15431 12.7117 5.53519 14.2026 5.53519 15.7324C5.53519 16.0491 5.55956 16.3561 5.61319 16.6679C6.67594 23.1187 10.1128 29.5208 15.2803 34.6903C20.4576 39.8548 26.8633 43.2849 33.3227 44.3568C35.1557 44.6637 37.0423 44.0498 38.3634 42.7343V42.7343ZM33.9028 40.9024C28.1552 39.9523 22.4222 36.8633 17.7666 32.2103C13.1109 27.5573 10.0202 21.8325 9.06956 16.0881C8.94769 15.367 9.19144 14.6264 9.71306 14.1002L14.8074 9.00876L20.2138 14.4072L14.3638 20.2441L14.3199 20.288L14.7099 21.3404C15.8838 24.5313 17.7379 27.429 20.1437 29.8326C22.5495 32.2362 25.4495 34.0882 28.6427 35.2603L29.6957 35.6501L35.5798 29.7645L40.9862 35.1629L35.8918 40.2544C35.3653 40.7806 34.6243 41.0242 33.9028 40.9024Z" fill="white"/>
</svg>
