<svg width="26" height="26" viewBox="0 0 26 26" fill="none" xmlns="http://www.w3.org/2000/svg">
<path d="M11.4646 17.1713L16.5275 13.1925C16.5614 13.1657 16.5887 13.1315 16.6075 13.0926C16.6263 13.0537 16.6361 13.011 16.6361 12.9678C16.6361 12.9246 16.6263 12.882 16.6075 12.8431C16.5887 12.8042 16.5614 12.77 16.5275 12.7431L11.4646 8.76188C11.2768 8.61461 11 8.74664 11 8.98532V16.9453C11 17.1839 11.2768 17.3185 11.4646 17.1713Z" fill="#8C8C8C"/>
<path d="M23.6786 4H2.32143C1.86708 4 1.5 4.36309 1.5 4.8125V21.0625C1.5 21.5119 1.86708 21.875 2.32143 21.875H23.6786C24.1329 21.875 24.5 21.5119 24.5 21.0625V4.8125C24.5 4.36309 24.1329 4 23.6786 4ZM22.6518 20.0469H3.34821V5.82813H22.6518V20.0469Z" fill="#8C8C8C"/>
</svg>
